PathFileType	4	(X/Y/Z)	C:\Users\WrightLab\Desktop\Jo\P1.2Trial7.trc
DataRate	CameraRate	NumFrames	NumMarkers	Units	OrigDataRate	OrigDataStartFrame	OrigNumFrames
100.00	100.00	       17	19	mm	100.00	203	       539
Frame#	Time	Headset_Front			Headset_Back			Headset_Left			Headset_Right			Left_Shoulder			Right_Shoulder			Sternum			C7			Left Elbow			Right Elbow			Left Wrist			Right Wrist			Left ASIS			Right ASIS			S2			Left Knee			Right Knee			Left Ankle			Right Ankle			
		X1	Y1	Z1	X2	Y2	Z2	X3	Y3	Z3	X4	Y4	Z4	X5	Y5	Z5	X6	Y6	Z6	X7	Y7	Z7	X8	Y8	Z8	X9	Y9	Z9	X10	Y10	Z10	X11	Y11	Z11	X12	Y12	Z12	X13	Y13	Z13	X14	Y14	Z14	X15	Y15	Z15	X16	Y16	Z16	X17	Y17	Z17	X18	Y18	Z18	X19	Y19	Z19	

203	2.020	-652.24762	1350.33435	-179.89418	-709.33856	1469.98767	-456.33316	-578.54846	1402.41003	-370.52188	-777.41156	1393.43799	-256.30927	-490.45807	1194.78601	-433.19791	-907.73022	1199.87769	-346.51266	-672.64465	1140.68335	-269.37372	-722.18964	1253.97302	-501.95615	-427.24460	904.83014	-452.16739	-986.32855	950.53064	-388.14377	-382.65451	704.97156	-324.93509	-1049.38098	705.86810	-296.46411	-543.63177	830.58575	-313.59616	-814.24963	812.28320	-247.29491	-735.42035	855.93274	-575.45758	-548.33197	376.21841	-405.06076	-817.40234	443.06778	-164.48941	-632.38696	77.72240	-638.03650	-848.60803	135.09470	-67.36771	
204	2.030	-650.18616	1348.80750	-169.83260	-710.33502	1469.30286	-445.19467	-578.37903	1401.97278	-360.78922	-776.17236	1393.32520	-244.53760	-491.67938	1193.75317	-424.49438	-908.53778	1198.64429	-333.09033	-672.16602	1140.56836	-257.57983	-724.18958	1252.93652	-490.06287	-429.77460	904.08630	-446.73019	-986.17786	949.73999	-374.53979	-384.83350	702.82825	-320.31738	-1049.29199	704.15112	-285.81482	-543.07867	829.99841	-302.69171	-813.06116	811.94836	-233.33656	-736.58301	854.69733	-563.03107	-546.31866	374.83676	-393.65280	-815.95544	441.57925	-149.05934	-632.42328	81.71442	-636.29419	-846.93634	133.74254	-57.75261	
205	2.040	-648.70074	1348.47620	-159.16602	-710.88531	1469.48816	-433.67343	-578.49646	1401.93152	-351.01840	-774.98297	1392.89661	-232.31104	-492.78818	1193.26465	-415.70004	-909.95538	1199.70667	-322.00778	-672.06195	1140.77966	-246.07443	-725.85315	1252.38391	-478.14377	-433.34637	903.19617	-440.91452	-986.32910	948.70648	-360.87384	-386.32306	701.05292	-316.57205	-1048.60583	702.94263	-274.35913	-543.82550	829.38397	-291.24402	-814.44714	812.17206	-222.10045	-736.85962	853.18652	-549.51703	-546.57318	374.63120	-382.97696	-813.69464	440.08411	-136.20854	-630.70972	85.99966	-631.10724	-846.40552	133.94785	-50.95764	
206	2.050	-647.78265	1348.83191	-147.42014	-711.78461	1470.02124	-421.78934	-579.16534	1401.54443	-340.14639	-774.91016	1394.18628	-220.80351	-494.05573	1193.30347	-405.97461	-909.72772	1198.94958	-308.13678	-672.04169	1141.04517	-234.18768	-727.51904	1252.56079	-465.90201	-435.71863	903.10779	-435.76431	-987.04230	948.31281	-348.14020	-387.48444	699.07623	-311.99420	-1049.64465	701.44312	-262.40381	-543.14368	829.74933	-277.42551	-812.07990	813.49963	-208.29861	-737.78265	852.28149	-536.10144	-544.93616	374.97879	-369.87485	-813.54956	438.58621	-124.93288	-630.58148	90.16597	-626.34369	-844.54047	132.85359	-41.46718	
207	2.060	-645.26434	1349.28796	-135.98149	-712.24567	1470.70142	-409.91107	-578.74933	1402.35950	-330.83527	-773.12457	1394.33545	-208.28613	-495.43042	1193.62329	-396.86813	-909.90674	1198.89087	-294.26776	-671.61188	1142.44629	-222.98271	-729.42993	1253.47253	-454.49048	-439.80090	902.66748	-430.98944	-986.68866	947.84204	-333.54156	-388.60641	698.05280	-309.89615	-1048.14270	701.12421	-251.59172	-542.09344	831.39868	-262.61737	-813.37262	813.62769	-197.48839	-738.37640	851.89331	-523.24084	-546.53839	374.99225	-358.72189	-813.41589	439.72839	-110.94322	-630.91339	96.61434	-619.89587	-843.83362	130.63225	-31.83755	
208	2.070	-643.97382	1350.31287	-125.40185	-713.05731	1471.36926	-398.56519	-579.30725	1402.61572	-319.29535	-772.77136	1396.37793	-196.14285	-496.64517	1194.22974	-387.65906	-910.85083	1199.90637	-281.30066	-671.00916	1143.50342	-210.48364	-731.03674	1254.26404	-442.43842	-444.41754	903.84039	-425.46652	-986.75867	948.39441	-320.69150	-388.87650	698.10632	-305.92578	-1048.44714	701.26593	-240.48415	-543.46729	830.68384	-250.38828	-811.92828	814.83167	-183.92548	-738.24585	851.76416	-508.70227	-547.45581	375.12869	-345.72168	-814.11316	439.65619	-100.12592	-630.52844	101.15439	-612.77313	-844.51703	126.63674	-25.99157	
209	2.080	-643.04266	1351.57715	-119.30495	-713.96527	1472.40308	-386.95163	-578.88440	1403.37939	-308.99890	-771.14001	1398.16431	-184.04588	-497.45340	1195.86462	-378.99539	-909.94336	1200.94568	-268.65466	-670.19318	1145.24878	-199.25276	-732.86719	1255.61267	-430.99692	-448.29831	904.55609	-419.85910	-985.02673	949.78033	-306.20248	-391.15387	698.62567	-303.18802	-1047.62622	700.91046	-228.35991	-544.20782	831.26715	-237.17043	-812.71423	817.56927	-170.62704	-738.38281	852.28351	-494.57971	-546.48602	377.38812	-330.46021	-814.17352	440.31201	-90.30777	-628.87415	107.67288	-602.93372	-847.19525	122.01976	-21.25804	
210	2.090	-640.27771	1353.75281	-103.63021	-713.92285	1474.44141	-375.30365	-578.81158	1405.53955	-298.91129	-768.71381	1398.53479	-170.85440	-497.90894	1197.43079	-369.93082	-910.11633	1201.75476	-254.20020	-669.26630	1147.09631	-187.78314	-733.31775	1257.19434	-418.26651	-452.47559	906.29742	-413.86884	-985.01660	950.38745	-293.15070	-391.60812	699.19958	-300.99985	-1045.53540	702.22803	-217.87675	-545.02814	832.73059	-222.60034	-812.28149	820.02905	-158.56435	-738.69171	854.23987	-481.10953	-548.84210	378.12277	-317.06277	-814.98145	441.63022	-77.08730	-631.07086	114.49911	-592.12036	-848.63837	117.87224	-18.28476	
211	2.100	-638.32587	1354.76794	-92.97982	-714.02118	1474.98743	-363.84412	-578.04443	1406.50879	-287.86609	-768.52216	1400.37964	-159.62793	-498.49512	1199.63354	-361.06140	-909.33044	1203.99927	-240.75655	-668.51672	1147.69995	-177.92302	-733.96680	1258.59155	-406.23981	-456.19965	908.31183	-407.80811	-983.35565	952.46021	-278.74716	-392.77017	700.24805	-298.45642	-1044.99292	703.69904	-205.69975	-545.40015	833.04163	-209.89815	-811.36890	822.70673	-144.54999	-738.25067	855.57745	-466.98895	-549.48895	380.89316	-302.66870	-815.40161	443.49136	-65.75285	-631.15363	121.50459	-580.52875	-849.62073	115.49554	-15.30542	
212	2.110	-636.29993	1356.50403	-80.80201	-714.20898	1476.63538	-352.33643	-577.19891	1407.94568	-276.92255	-766.62305	1402.21875	-147.31403	-498.56708	1201.61536	-352.14413	-908.71991	1205.94141	-227.17194	-667.64709	1149.02979	-167.80981	-735.53149	1260.95349	-395.51443	-459.71844	911.61060	-403.55573	-983.02576	954.66266	-265.98077	-393.82071	701.60638	-296.53357	-1043.20007	705.11810	-193.42619	-545.37189	835.05725	-196.53804	-813.01068	825.55115	-132.52495	-738.25446	857.66797	-453.64227	-550.48206	383.31946	-286.24628	-816.79547	443.86887	-55.45956	-630.83502	129.35306	-567.03033	-850.47205	114.09141	-12.52908	
213	2.120	-633.85596	1357.75256	-70.88939	-713.35992	1477.65942	-340.96625	-576.95587	1409.63611	-266.66614	-764.01147	1402.68225	-135.38194	-498.67856	1204.26843	-343.06247	-907.15112	1208.17322	-213.66002	-664.95465	1151.68628	-157.71941	-736.28741	1262.57214	-383.58807	-463.24774	914.46252	-398.21326	-981.46130	956.97150	-252.47864	-394.35489	703.81189	-294.61154	-1041.43115	707.86969	-181.40305	-545.45508	836.46460	-184.48256	-813.26843	827.57159	-120.57845	-738.17731	859.60565	-439.81631	-551.34778	386.23645	-270.97684	-818.07184	444.44910	-44.50267	-629.24921	136.68082	-553.21735	-850.77924	110.88154	-12.45248	
214	2.130	-631.53369	1359.00977	-59.65106	-713.93408	1479.67151	-328.55960	-574.77167	1412.73853	-257.83954	-763.52869	1404.88379	-124.19634	-498.30075	1206.73816	-334.63916	-904.49231	1211.14050	-199.34256	-662.68359	1153.03723	-147.71344	-736.45538	1264.73865	-372.33716	-467.05472	916.36768	-391.14987	-980.42291	959.30359	-238.24403	-395.80246	705.68671	-292.34903	-1039.40247	709.97083	-168.51581	-545.19983	838.68402	-171.76379	-812.69855	830.36664	-110.12867	-738.20605	861.79645	-426.92426	-551.41089	388.21625	-254.24634	-817.87939	445.87735	-34.52113	-628.70709	144.58119	-535.45007	-850.46490	109.79021	-9.12119	
215	2.140	-629.03546	1360.13159	-49.69664	-713.21387	1481.72278	-316.81519	-573.62378	1415.04370	-246.20245	-761.35999	1406.70532	-111.90753	-498.54443	1209.15869	-326.65024	-901.96619	1212.37183	-185.36874	-660.88770	1154.94202	-137.18233	-737.26801	1267.16736	-361.19788	-469.76697	919.35236	-385.78311	-978.76056	962.04437	-224.33830	-397.70035	707.44873	-290.65897	-1037.03882	712.79193	-155.84607	-544.77563	841.39929	-161.01637	-812.43701	833.66815	-94.92007	-737.88849	863.92261	-414.46298	-548.48346	391.52151	-235.54379	-818.11157	447.66455	-24.56547	-628.23547	152.86584	-517.48425	-849.95807	107.12926	-9.18199	
216	2.150	-626.41980	1363.21558	-38.95412	-712.28040	1484.12805	-306.07947	-572.89069	1417.25989	-235.15677	-758.50500	1408.05396	-100.99125	-497.88602	1211.30737	-318.06180	-900.67035	1215.01721	-171.47964	-657.96570	1156.91992	-126.39545	-736.92432	1269.62598	-348.81369	-472.18475	922.63092	-380.82965	-977.78510	964.71204	-209.61188	-398.98413	708.62958	-288.04425	-1034.82690	715.49683	-141.94055	-543.56738	843.68433	-151.12379	-810.25415	836.81244	-82.85789	-737.88177	866.31757	-401.72394	-546.40216	393.82553	-217.76952	-819.43573	447.65662	-15.71545	-627.61908	160.97223	-499.40689	-849.44000	106.74574	-6.27418	
217	2.160	-623.88470	1364.04590	-28.71638	-711.10712	1486.21277	-294.23569	-571.52997	1419.85535	-223.74228	-755.88000	1409.50806	-89.15973	-497.37964	1213.24402	-309.96512	-897.20923	1218.00037	-157.01581	-654.83490	1158.60962	-117.54423	-736.66913	1271.62476	-337.87341	-473.67267	925.05164	-374.76123	-976.32733	967.73199	-196.16856	-400.18323	710.53949	-286.40863	-1032.82507	718.11841	-128.19055	-541.93903	846.63965	-143.12340	-809.17651	838.93475	-71.94858	-738.69312	869.75238	-390.31821	-540.70966	397.46747	-197.66251	-819.18701	447.22473	-8.26688	-627.23206	171.45248	-481.10574	-848.51495	103.64140	-4.95973	
218	2.170	-620.65167	1366.12549	-18.63131	-709.85217	1489.34326	-283.41391	-569.82361	1421.94653	-212.38258	-754.11963	1411.60510	-78.27908	-496.99371	1215.04602	-302.50879	-894.90356	1219.87256	-145.90540	-651.67804	1160.31519	-108.64445	-736.69354	1274.39795	-326.82346	-474.10037	927.63013	-369.32935	-974.98230	970.83093	-182.04643	-400.34531	712.84949	-283.67068	-1030.12292	721.38586	-114.41393	-539.78607	849.03058	-135.76402	-807.96954	840.92627	-60.55665	-739.32654	872.10486	-378.80865	-533.89862	400.38312	-177.59293	-819.89429	447.20401	-1.81783	-626.12964	179.81961	-462.41168	-847.41699	102.75606	-3.10445	
219	2.180	-617.61981	1367.61096	-7.72369				-567.88879	1424.30786	-201.25812	-750.94946	1413.85315	-66.65390	-497.20178	1217.28345	-295.81961	-891.21405	1223.04871	-132.00340	-647.55347	1162.10034	-98.31101	-736.56604	1276.93311	-315.98044	-475.56918	928.95068	-361.65881	-974.11475	973.68890	-167.69592	-401.20322	714.83698	-281.22971	-1027.80334	723.62903	-99.78719	-537.15680	850.77301	-129.41762	-804.33319	843.28162	-47.56216	-740.89893	875.08112	-367.30713	-526.59741	402.67270	-157.02448	-819.82202	446.12997	4.76926	-625.34711	188.04541	-443.49313	-847.88245	102.53133	-1.29975	
